<svg width="66" height="73" viewBox="0 0 66 73" fill="none" xmlns="http://www.w3.org/2000/svg">
<path d="M10.093 0V7.34558H17.3819V0H10.093ZM46.5375 0V7.34558H53.8264V0H46.5375Z" fill="#FDE293"/>
<path d="M58.3111 6.78076H7.28889C3.24355 6.78076 0.0364444 10.083 0.0364444 14.1263L0 65.5434C0 69.5826 3.24355 72.889 7.28889 72.889H58.3111C62.32 72.889 65.6 69.5826 65.6 65.5434V14.1263C65.6 10.0851 62.32 6.78076 58.3111 6.78076Z" fill="#FBBC04"/>
<path d="M58.872 66.1933H6.72806V25.5112H58.872V66.1933Z" fill="#FEF7E0"/>
<path fill-rule="evenodd" clip-rule="evenodd" d="M33.0004 32.2414L27.5945 37.6473L33.0004 43.0532C33.1697 43.2225 33.3706 43.3567 33.5917 43.4483C33.8128 43.5399 34.0498 43.587 34.2891 43.587C34.5285 43.587 34.7655 43.5399 34.9866 43.4483C35.2077 43.3567 35.4086 43.2225 35.5779 43.0532C35.7471 42.884 35.8813 42.6831 35.9729 42.462C36.0645 42.2409 36.1117 42.0039 36.1117 41.7645C36.1117 41.5252 36.0645 41.2882 35.9729 41.0671C35.8813 40.846 35.7471 40.645 35.5779 40.4758L34.8226 39.7226C36.6544 40.183 38.2802 41.2416 39.4421 42.7307C40.604 44.2198 41.2357 46.0541 41.2369 47.9429C41.2358 50.1898 40.3427 52.3444 38.7539 53.9332C37.1651 55.5221 35.0105 56.4151 32.7635 56.4162C30.5166 56.4151 28.362 55.5221 26.7732 53.9332C25.1843 52.3444 24.2913 50.1898 24.2902 47.9429C24.2902 47.4596 24.0982 46.9961 23.7565 46.6544C23.4147 46.3126 22.9513 46.1207 22.468 46.1207C21.9847 46.1207 21.5212 46.3126 21.1795 46.6544C20.8377 46.9961 20.6458 47.4596 20.6458 47.9429C20.6468 51.1564 21.9239 54.238 24.1962 56.5102C26.4684 58.7825 29.55 60.0596 32.7635 60.0606C35.977 60.0596 39.0586 58.7825 41.3309 56.5102C43.6032 54.238 44.8802 51.1564 44.8813 47.9429C44.8803 45.0221 43.8249 42.1999 41.9092 39.9951C39.9934 37.7903 37.3462 36.3513 34.4541 35.9425L35.5779 34.8168C35.9196 34.475 36.1117 34.0114 36.1117 33.5281C36.1117 33.0447 35.9196 32.5812 35.5779 32.2394C35.2361 31.8976 34.7725 31.7056 34.2891 31.7056C33.8058 31.7056 33.3422 31.8996 33.0004 32.2414Z" fill="#EA8600"/>
</svg>
