<svg width="48" height="48" viewBox="0 0 48 48" fill="none" xmlns="http://www.w3.org/2000/svg">
<mask id="mask0_12_2489" style="mask-type:luminance" maskUnits="userSpaceOnUse" x="0" y="0" width="48" height="48">
<path d="M0 0H48V48H0V0Z" fill="white"/>
</mask>
<g mask="url(#mask0_12_2489)">
<path fill-rule="evenodd" clip-rule="evenodd" d="M38 4H26.26C24.66 4 23.14 4.64 22.02 5.76L5.76 22.02C4.6364 23.145 4.00528 24.67 4.00528 26.26C4.00528 27.85 4.6364 29.375 5.76 30.5L17.5 42.24C18.0561 42.7981 18.7169 43.2408 19.4445 43.5429C20.1721 43.8449 20.9522 44.0002 21.74 44C23.26 44 24.82 43.42 25.98 42.24L42.24 26C43.3628 24.874 43.9953 23.3501 44 21.76V10C44 6.68 41.32 4 38 4ZM32.666 18.667C33.1038 18.667 33.5372 18.5808 33.9417 18.4133C34.3461 18.2457 34.7136 18.0002 35.0231 17.6906C35.3327 17.3811 35.5782 17.0136 35.7458 16.6092C35.9133 16.2047 35.9995 15.7713 35.9995 15.3335C35.9995 14.8957 35.9133 14.4623 35.7458 14.0578C35.5782 13.6534 35.3327 13.2859 35.0231 12.9764C34.7136 12.6668 34.3461 12.4213 33.9417 12.2537C33.5372 12.0862 33.1038 12 32.666 12C31.7819 12 30.934 12.3512 30.3089 12.9764C29.6837 13.6015 29.3325 14.4494 29.3325 15.3335C29.3325 16.2176 29.6837 17.0655 30.3089 17.6906C30.934 18.3158 31.7819 18.667 32.666 18.667Z" fill="#004FF2"/>
</g>
</svg>
