<svg width="65" height="65" viewBox="0 0 65 65" fill="none" xmlns="http://www.w3.org/2000/svg">
<path fill-rule="evenodd" clip-rule="evenodd" d="M65 3.6958C65 2.71561 64.6106 1.77557 63.9175 1.08247C63.2244 0.389378 62.2844 4.01106e-08 61.3042 4.01106e-08H38.5935C37.1245 -0.000176543 35.7155 0.582698 34.676 1.62061L1.08486 35.1655C0.391908 35.8572 0.00173808 36.7956 5.79284e-06 37.7747C-0.00172649 38.7538 0.385121 39.6935 1.07562 40.3877L24.4793 63.9004C24.822 64.2445 25.2292 64.5176 25.6776 64.7043C26.126 64.8909 26.6068 64.9873 27.0925 64.988C27.5782 64.9887 28.0593 64.8936 28.5082 64.7083C28.9571 64.5229 29.3651 64.2509 29.7088 63.9077L63.3738 30.2889C63.8894 29.774 64.2984 29.1624 64.5775 28.4893C64.8565 27.8161 65.0001 27.0945 65 26.3658V3.6958Z" fill="#34A853"/>
<path fill-rule="evenodd" clip-rule="evenodd" d="M52.2107 17.9098C52.8942 17.9282 53.5745 17.8094 54.2114 17.5606C54.8482 17.3117 55.4288 16.9377 55.9187 16.4608C56.4087 15.9838 56.7981 15.4135 57.064 14.7836C57.3299 14.1536 57.4669 13.4768 57.4669 12.793C57.4669 12.1092 57.3299 11.4324 57.064 10.8024C56.7981 10.1725 56.4087 9.6022 55.9187 9.12524C55.4288 8.64828 54.8482 8.27432 54.2114 8.02544C53.5745 7.77655 52.8942 7.65779 52.2107 7.67616C50.8774 7.712 49.6108 8.26681 48.6805 9.2225C47.7501 10.1782 47.2295 11.4593 47.2295 12.793C47.2295 14.1267 47.7501 15.4078 48.6805 16.3635C49.6108 17.3192 50.8774 17.874 52.2107 17.9098Z" fill="#137333"/>
<path d="M26.985 45.6169C26.985 35.1245 35.5002 26.6094 45.9925 26.6094C56.4849 26.6094 65 35.1245 65 45.6169C65 56.1074 56.4849 64.6225 45.9925 64.6225C35.502 64.6225 26.985 56.1074 26.985 45.6169Z" fill="#E6F4EA"/>
<path d="M52.632 38.5691L41.4171 49.784L37.8063 46.1732C37.6324 45.9971 37.4252 45.8573 37.1968 45.7619C36.9684 45.6664 36.7234 45.6173 36.4758 45.6173C36.2283 45.6173 35.9832 45.6664 35.7548 45.7619C35.5265 45.8573 35.3193 45.9971 35.1453 46.1732C34.9692 46.3472 34.8294 46.5543 34.734 46.7827C34.6386 47.0111 34.5894 47.2562 34.5894 47.5037C34.5894 47.7512 34.6386 47.9963 34.734 48.2247C34.8294 48.4531 34.9692 48.6602 35.1453 48.8342L40.0681 53.757C40.8092 54.4962 42.0066 54.4962 42.7476 53.757L55.293 41.2301C55.4691 41.0561 55.6089 40.849 55.7043 40.6206C55.7998 40.3922 55.8489 40.1471 55.8489 39.8996C55.8489 39.6521 55.7998 39.407 55.7043 39.1786C55.6089 38.9502 55.4691 38.7431 55.293 38.5691C55.119 38.393 54.9119 38.2532 54.6835 38.1578C54.4551 38.0623 54.21 38.0132 53.9625 38.0132C53.715 38.0132 53.4699 38.0623 53.2415 38.1578C53.0131 38.2532 52.806 38.393 52.632 38.5691Z" fill="#000090"/>
</svg>
