<svg width="28" height="28" viewBox="0 0 28 28" fill="none" xmlns="http://www.w3.org/2000/svg">
<path d="M24.6087 11.2629C28.433 14.6869 27.819 19.4353 23.143 22.3987L20.1802 27.1123L18.4248 24.3193C15.4996 25.0023 12.3498 24.9681 9.57229 24.3193L7.81695 27.1123L4.85413 22.3987C-1.24083 18.5356 -0.164474 11.9772 7.05529 9.03662C24.7933 11.2864 24.603 11.2629 24.6087 11.2629Z" fill="#000090"/>
<path d="M26.5408 0.887695L23.9662 2.64133C27.8872 4.94893 28.1873 8.73805 24.6088 11.263C24.6082 11.263 24.6082 11.263 24.6082 11.263C22.7263 12.5902 19.9482 13.4299 16.8491 13.4299C11.3297 13.4299 6.58728 10.7061 6.58728 7.15881C6.58728 3.69544 11.1817 0.887695 16.8491 0.887695H26.5408Z" fill="#004FF2"/>
<path d="M21.98 6.01855C22.6094 6.01855 23.1202 6.5288 23.1202 7.15876C23.1202 7.78872 22.6094 8.29896 21.98 8.29896C21.35 8.29896 20.8398 7.78872 20.8398 7.15876C20.8398 6.5288 21.35 6.01855 21.98 6.01855Z" fill="#F9F2F8"/>
<path d="M16.8491 6.01855C17.4785 6.01855 17.9893 6.5288 17.9893 7.15876C17.9893 7.78872 17.4785 8.29896 16.8491 8.29896C16.2191 8.29896 15.7089 7.78872 15.7089 7.15876C15.7089 6.5288 16.2191 6.01855 16.8491 6.01855Z" fill="#F9F2F8"/>
<path d="M11.7181 6.01855C12.3475 6.01855 12.8583 6.5288 12.8583 7.15876C12.8583 7.78872 12.3475 8.29896 11.7181 8.29896C11.0882 8.29896 10.5779 7.78872 10.5779 7.15876C10.5779 6.5288 11.0882 6.01855 11.7181 6.01855Z" fill="#F9F2F8"/>
<path d="M22.5501 19.1309H5.44705C5.13219 19.1309 4.87695 18.8756 4.87695 18.5608C4.87695 18.246 5.13219 17.9907 5.44705 17.9907H22.5501C22.8649 17.9907 23.1202 18.246 23.1202 18.5608C23.1202 18.8756 22.8649 19.1309 22.5501 19.1309Z" fill="white"/>
<path d="M20.1802 27.6822C19.9841 27.6822 19.8018 27.5814 19.6975 27.4155L18.156 24.9628C15.4588 25.5309 12.5375 25.5309 9.84111 24.9628L8.29961 27.4155C8.0763 27.7707 7.55751 27.7708 7.33426 27.4155L4.43923 22.8097C-0.349451 19.7062 -0.793218 15.0244 2.21418 11.6274C3.34857 10.3461 4.905 9.29674 6.84027 8.50851C7.13176 8.38988 7.46453 8.52989 7.58328 8.82144C7.70203 9.11305 7.56196 9.4457 7.27035 9.56446C3.8697 10.9495 1.70377 13.2958 1.47647 15.8406C1.27551 18.0914 2.61787 20.3062 5.15938 21.917C5.23104 21.9624 5.2917 22.0233 5.33685 22.0952L7.81697 26.0408L9.08966 24.0158C9.21913 23.8098 9.46524 23.7087 9.70201 23.764C12.4722 24.4111 15.524 24.411 18.2953 23.764C18.5321 23.7086 18.7781 23.8098 18.9075 24.0158L20.1802 26.0408L22.6604 22.0952C22.7056 22.0233 22.7662 21.9624 22.8378 21.917C27.2093 19.1466 27.7542 14.8442 24.2285 11.6875C23.9939 11.4774 23.974 11.117 24.1841 10.8824C24.3942 10.6478 24.7545 10.628 24.9891 10.8379C28.9781 14.4095 28.5577 19.57 23.5579 22.8097L20.6629 27.4154C20.5585 27.5815 20.3762 27.6822 20.1802 27.6822Z" fill="white"/>
<path d="M10.578 16.2803H5.44705C5.13219 16.2803 4.87695 16.025 4.87695 15.7102C4.87695 15.3954 5.13219 15.1401 5.44705 15.1401H10.578C10.8928 15.1401 11.1481 15.3954 11.1481 15.7102C11.1481 16.025 10.8928 16.2803 10.578 16.2803Z" fill="white"/>
<path d="M16.8491 13.9998C12.1308 13.9998 7.99114 12.1098 6.54804 9.29671C6.54804 9.29665 6.54798 9.29659 6.54793 9.29654C5.41605 7.08785 5.99276 4.25616 9.29559 2.23783C11.3221 0.999395 14.0046 0.317383 16.8491 0.317383H26.5408C26.791 0.317383 27.0119 0.480489 27.0857 0.719589C27.1593 0.958633 27.0686 1.21786 26.8618 1.35867L24.9958 2.62966C28.617 5.21672 28.56 9.17277 24.9375 11.7286C24.9318 11.7326 24.9261 11.7366 24.9202 11.7403C22.8742 13.1765 19.934 13.9998 16.8491 13.9998ZM7.56254 8.77632C8.79589 11.1805 12.6147 12.8596 16.8491 12.8596C19.7125 12.8596 22.4207 12.1078 24.2796 10.7969C25.5051 9.93898 26.5408 8.66555 26.5408 7.1586C26.5408 5.64914 25.5238 4.21927 23.6771 3.13243C23.5088 3.0334 23.4029 2.85507 23.3965 2.65993C23.39 2.46473 23.4839 2.27984 23.6453 2.16993L24.6911 1.45759H16.8491C14.2115 1.45759 11.7401 2.08019 9.8902 3.21076C8.12791 4.28774 7.15742 5.68973 7.15742 7.1586C7.15737 7.70738 7.29368 8.2516 7.56254 8.77632Z" fill="white"/>
<path d="M11.7182 8.86885C10.7751 8.86885 10.0079 8.10161 10.0079 7.15855C10.0079 6.21548 10.7751 5.44824 11.7182 5.44824C12.6612 5.44824 13.4285 6.21548 13.4285 7.15855C13.4285 8.10161 12.6612 8.86885 11.7182 8.86885ZM11.7182 6.58844C11.4038 6.58844 11.1481 6.84419 11.1481 7.15855C11.1481 7.4729 11.4038 7.72865 11.7182 7.72865C12.0325 7.72865 12.2883 7.4729 12.2883 7.15855C12.2883 6.84419 12.0325 6.58844 11.7182 6.58844Z" fill="white"/>
<path d="M16.8491 8.86885C15.906 8.86885 15.1388 8.10161 15.1388 7.15855C15.1388 6.21548 15.906 5.44824 16.8491 5.44824C17.7922 5.44824 18.5594 6.21548 18.5594 7.15855C18.5594 8.10161 17.7922 8.86885 16.8491 8.86885ZM16.8491 6.58844C16.5347 6.58844 16.279 6.84419 16.279 7.15855C16.279 7.4729 16.5347 7.72865 16.8491 7.72865C17.1635 7.72865 17.4192 7.4729 17.4192 7.15855C17.4192 6.84419 17.1635 6.58844 16.8491 6.58844Z" fill="white"/>
<path d="M21.98 8.86885C21.037 8.86885 20.2697 8.10161 20.2697 7.15855C20.2697 6.21548 21.037 5.44824 21.98 5.44824C22.9231 5.44824 23.6903 6.21548 23.6903 7.15855C23.6903 8.10161 22.9231 8.86885 21.98 8.86885ZM21.98 6.58844C21.6657 6.58844 21.4099 6.84419 21.4099 7.15855C21.4099 7.4729 21.6657 7.72865 21.98 7.72865C22.2944 7.72865 22.5501 7.4729 22.5501 7.15855C22.5501 6.84419 22.2944 6.58844 21.98 6.58844Z" fill="white"/>
</svg>
